<?xml version="1.0" encoding="UTF-8"?>
<svg width="113.52mm" height="91.821mm" version="1.1" viewBox="0 0 402.24 325.35" xmlns="http://www.w3.org/2000/svg" xmlns:cc="http://creativecommons.org/ns#" xmlns:dc="http://purl.org/dc/elements/1.1/" xmlns:rdf="http://www.w3.org/1999/02/22-rdf-syntax-ns#">
<title>Shopping Cart</title>
<defs>
<filter id="a" x="-.25" y="-.25" width="1.5" height="1.5" color-interpolation-filters="sRGB">
<feGaussianBlur result="result1" stdDeviation="4"/>
<feComposite in="result1" in2="result1" operator="in" result="result4"/>
<feGaussianBlur in="result4" result="result6" stdDeviation="2"/>
<feComposite in="result6" in2="result4" operator="xor" result="result8"/>
<feComposite in="result4" in2="result8" operator="atop" result="fbSourceGraphic"/>
<feSpecularLighting lighting-color="#ffffff" in="fbSourceGraphic" result="result1" specularConstant="1.29999995" specularExponent="10" surfaceScale="3">
<feDistantLight azimuth="235" elevation="55"/>
</feSpecularLighting>
<feComposite in="result1" in2="fbSourceGraphic" operator="atop" result="result2"/>
<feComposite in="fbSourceGraphic" in2="result2" k2="1" k3="1" operator="arithmetic" result="result4"/>
<feComposite in="result4" in2="SourceGraphic"/>
<feBlend in2="result2" mode="multiply"/>
</filter>
<filter id="d" x="-.020538" y="-.028865" width="1.0411" height="1.0577" color-interpolation-filters="sRGB">
<feGaussianBlur stdDeviation="1.78"/>
</filter>
<filter id="c" x="-.014687" y="-.0656" width="1.0294" height="1.1312" color-interpolation-filters="sRGB">
<feGaussianBlur stdDeviation="1.64"/>
</filter>
<filter id="b" x="-.04833" y="-7.04" width="1.0967" height="15.08" color-interpolation-filters="sRGB">
<feGaussianBlur stdDeviation="8.8"/>
</filter>
</defs>
<metadata>
<rdf:RDF>
<cc:Work rdf:about="">
<dc:format>image/svg+xml</dc:format>
<dc:type rdf:resource="http://purl.org/dc/dcmitype/StillImage"/>
<dc:title>Shopping Cart</dc:title>
<dc:date>2016-02-17</dc:date>
<dc:creator>
<cc:Agent>
<dc:title>Algot Runeman</dc:title>
</cc:Agent>
</dc:creator>
<dc:rights>
<cc:Agent>
<dc:title>Algot Runeman</dc:title>
</cc:Agent>
</dc:rights>
<dc:publisher>
<cc:Agent>
<dc:title>runeman.org</dc:title>
</cc:Agent>
</dc:publisher>
<dc:identifier>shoppingcart.svg</dc:identifier>
<cc:license rdf:resource="http://creativecommons.org/publicdomain/zero/1.0/"/>
</cc:Work>
<cc:License rdf:about="http://creativecommons.org/publicdomain/zero/1.0/">
<cc:permits rdf:resource="http://creativecommons.org/ns#Reproduction"/>
<cc:permits rdf:resource="http://creativecommons.org/ns#Distribution"/>
<cc:permits rdf:resource="http://creativecommons.org/ns#DerivativeWorks"/>
</cc:License>
</rdf:RDF>
</metadata>
<g transform="translate(312.97 -310.36)">
<path transform="matrix(.76884 0 0 1.2311 -16.102 -140.5)" d="m-365 609.36h437v-3" fill="none" filter="url(#b)" stroke="#000" stroke-width="6"/>
<path d="m-260 536.95 20 8 218-4 10-10" fill="none" stroke="#000" stroke-linecap="round" stroke-width="3"/>
<path d="m-40 312.36 22 98h58c1.6667-4 1.6667-5.3333 0-8h-54l-20-90c-3.2364-2.4727-4.7359-1.4719-6 0z" fill="#000080" fill-rule="evenodd" stroke="#000" stroke-width="1px"/>
<path d="m-300 342.36 20 140h290l30-150z" fill="none" stroke="#4d4d4d" stroke-linejoin="bevel" stroke-width="3"/>
<path d="m-296.71 352.36h332.71" fill="none" stroke="#808080" stroke-width=".75"/>
<path d="m34 362.36h-324-6" fill="none" stroke="#808080" stroke-width=".75"/>
<path d="m-294.35 372.36h326.35" fill="none" stroke="#808080" stroke-width=".75"/>
<path d="m-293.41 382.36h323.41" fill="none" stroke="#808080" stroke-width=".75"/>
<path d="m-292.12 392.36h320.12" fill="none" stroke="#808080" stroke-width=".75"/>
<path d="m-290 402.36h316" fill="none" stroke="#808080" stroke-width=".75"/>
<path d="m-290 412.36h314" fill="none" stroke="#808080" stroke-width=".75"/>
<path d="m-288.94 422.36h310.94" fill="none" stroke="#808080" stroke-width=".75"/>
<path d="m-287.17 432.36h307.17" fill="none" stroke="#808080" stroke-width=".75"/>
<path d="m-285.41 442.36h305.41-2" fill="none" stroke="#808080" stroke-width=".75"/>
<path d="m-284 452.36h300" fill="none" stroke="#808080" stroke-width=".75"/>
<path d="m-282 462.36h296" fill="none" stroke="#808080" stroke-width=".75"/>
<path d="m-282 472.36h294" fill="none" stroke="#808080" stroke-width=".75"/>
<path d="m-298.71 342.36h336.71" fill="none" stroke="#808080" stroke-width=".75"/>
<path d="m-160 482.36c-1.9397 3.8389-3.928 8.1522 0 10h160l-8 50-252 4c-4.2292 1.2012-5.2901 7.1887 0 10l262-4 8-60c5.6654-0.22397 9.9565-2.2802 10-10l30-140h30c0.9619-4.3564 0.92515-7.5263 0-10h-40l-30 150z" fill="#ccc" fill-rule="evenodd" stroke="#000" stroke-width="1px"/>
<path d="m52.042 332.4v9.9166h33.514c3.118-2.0712 5.215-4.9684 0-9.9166z" fill="#f00" fill-rule="evenodd" stroke="#000" stroke-width="1.0835px"/>
<path d="m-280 342.36v130" fill="none" stroke="#808080" stroke-width=".75"/>
<path d="m-270 342.36v140" fill="none" stroke="#808080" stroke-width=".75"/>
<path d="m-260 342.36v140" fill="none" stroke="#808080" stroke-width=".75"/>
<path d="m-250 342.36v140" fill="none" stroke="#808080" stroke-width=".75"/>
<path d="m-240 340.36v142" fill="none" stroke="#808080" stroke-width=".75"/>
<path d="m-230 340.36v142" fill="none" stroke="#808080" stroke-width=".75"/>
<path d="m-220 340.36v142" fill="none" stroke="#808080" stroke-width=".75"/>
<path d="m-210 340.36v142" fill="none" stroke="#808080" stroke-width=".75"/>
<path d="m-200 340.36v142" fill="none" stroke="#808080" stroke-width=".75"/>
<path d="m-190 338.36v144" fill="none" stroke="#808080" stroke-width=".75"/>
<path d="m-180 338.36v144" fill="none" stroke="#808080" stroke-width=".75"/>
<path d="m-170 338.36v144" fill="none" stroke="#808080" stroke-width=".75"/>
<path d="m-160 338.36v144" fill="none" stroke="#808080" stroke-width=".75"/>
<path d="m-150 338.36v144" fill="none" stroke="#808080" stroke-width=".75"/>
<path d="m-140 338.36v144" fill="none" stroke="#808080" stroke-width=".75"/>
<path d="m-130 338.36v144" fill="none" stroke="#808080" stroke-width=".75"/>
<path d="m-120 338.36v144" fill="none" stroke="#808080" stroke-width=".75"/>
<path d="m-110 336.36v146" fill="none" stroke="#808080" stroke-width=".75"/>
<path d="m-100 336.36v146" fill="none" stroke="#808080" stroke-width=".75"/>
<path d="m-90 336.36v146" fill="none" stroke="#808080" stroke-width=".75"/>
<path d="m-80 336.36v146" fill="none" stroke="#808080" stroke-width=".75"/>
<path d="m-70 336.36v146" fill="none" stroke="#808080" stroke-width=".75"/>
<path d="m-60 336.36v146" fill="none" stroke="#808080" stroke-width=".75"/>
<path d="m-50 334.36v148" fill="none" stroke="#808080" stroke-width=".75"/>
<path d="m-40 334.36v148" fill="none" stroke="#808080" stroke-width=".75"/>
<path d="m-30 332.36v150" fill="none" stroke="#808080" stroke-width=".75"/>
<path d="m-20 333.61v148.75" fill="none" stroke="#808080" stroke-width=".75"/>
<path d="m-10 332.36v150" fill="none" stroke="#808080" stroke-width=".75"/>
<path d="m0 332.36v150" fill="none" stroke="#808080" stroke-width=".75"/>
<path d="m10 332.36v150" fill="none" stroke="#808080" stroke-width=".75"/>
<path d="m20 332.36v90" fill="none" stroke="#808080" stroke-width=".75"/>
<path d="m30 332.36v40" fill="none" stroke="#808080" stroke-width=".75"/>
<path d="m-290 342.36v60" fill="none" stroke="#808080" stroke-width=".75"/>
<g transform="translate(0 -10.111)">
<circle cx="-241" cy="593.36" r="18.75"/>
<circle cx="-241" cy="593.36" r="14.062" fill="#ccc" filter="url(#a)"/>
</g>
<path d="m-245.98 556.38h9.9569v32.785h-9.9569z" fill="#ccc" fill-rule="evenodd" stroke="#000" stroke-width="1.0431px"/>
<circle cx="-241" cy="583.36" r="2.5"/>
<path d="m-255.86 545.99v6.6774l9.5919 10.016h9.8052l10.317-10.016v-6.6774z" fill="#ccc" fill-rule="evenodd" stroke="#000" stroke-width="1.2859px"/>
<g transform="matrix(1.2179 0 0 1.2179 270.22 -142.58)">
<circle cx="-241" cy="593.36" r="18.75"/>
<circle cx="-241" cy="593.36" r="14.062" fill="#ccc" filter="url(#a)"/>
</g>
<path d="m-28.269 553.09h9.9569v32.785h-9.9569z" fill="#ccc" fill-rule="evenodd" stroke="#000" stroke-width="1.0431px"/>
<circle cx="-23.291" cy="580.07" r="2.5"/>
<path d="m-38.148 542.7v6.6774l9.5919 10.016h9.8052l10.317-10.016v-6.6774z" fill="#ccc" fill-rule="evenodd" stroke="#000" stroke-width="1.2859px"/>
<path d="m40 332.36-30 152h-170" fill="none" stroke="#808080" stroke-width=".75"/>
<path d="m48 342.36-30 140c-0.40903 4.9243-3.8549 6.8118-8 8h-170" fill="none" filter="url(#d)" stroke="#666" stroke-linecap="round" stroke-width="2"/>
<path d="m1.2929 492.36-7.2929 52-254 4" fill="none" stroke="#fff" stroke-width="1px"/>
<path d="m8 492.36-8 58-258 2" fill="none" filter="url(#c)" stroke="#4d4d4d" stroke-width="2"/>
<path d="m42 333.66h44" fill="none" stroke="#fff" stroke-linecap="round" stroke-width="2"/>
<path d="m-298.17 340.6h18.357l-7.1683 14.446-11.772 8-3.9501-14.373c-0.84234-6.8561-2.111-8.0726 4.5342-8.0726z" fill="#ccc" fill-rule="evenodd" stroke="#000" stroke-width="1px"/>
</g>
</svg>
